<!--?xml version="1.0" encoding="utf-8"?-->
<!-- Generator: Adobe Illustrator 18.1.1, SVG Export Plug-In . SVG Version: 6.00 Build 0)  -->

<svg version="1.1" id="_x32_" xmlns="http://www.w3.org/2000/svg" xmlns:xlink="http://www.w3.org/1999/xlink" x="0px" y="0px" viewBox="0 0 512 512" style="width: 256px; height: 256px; opacity: 1;" xml:space="preserve">
<style type="text/css">
	.st0{fill:#4B4B4B;}
</style>
<g>
<path class="st0" d="M507.087,219.838c-4.708-11.075-12.376-20.696-21.872-27.681c-4.752-3.489-9.982-6.309-15.541-8.27
  c-5.568-1.946-11.48-3.048-17.532-3.048H275.804c5.538-5.465,14.55-14.065,28.806-27.021c6.17-5.619,11.032-11.861,14.366-18.56
  c3.342-6.698,5.126-13.874,5.126-21.138c0-5.552-1.05-11.127-3.129-16.489c-4.01-10.356-11.517-18.89-20.785-24.846
  c-9.269-5.957-20.396-9.394-32.037-9.401c-11.186,0-21.954,3.32-30.922,9.643c-1.292,0.918-4.061,2.806-7.888,5.398
  c-13.426,9.064-40.05,26.822-67.24,44.905c-24.392,16.216-49.216,32.698-65.456,43.48c-9.364-7.58-21.233-11.994-33.866-11.994
  h-8.872c-14.844,0-28.372,6.06-38.104,15.814C6.059,180.354,0,193.875,0,208.734v155.103c0,14.851,6.059,28.379,15.805,38.104
  c9.732,9.739,23.26,15.806,38.104,15.806h8.872c12.134,0,23.665-4.025,32.963-11.252l112.77,37.31c0,0,0,0-0.008,0l0.037,0.008
  c9.452,3.18,19.28,4.804,29.202,4.804c36.583,0.007,69.568-21.762,83.978-55.394l37.215-86.835h90.288
  c17.29,0,33.028-7.051,44.368-18.391c11.348-11.354,18.414-27.087,18.406-44.383C512,235.291,510.208,227.235,507.087,219.838z
   M470.635,265.022c-5.508,5.494-13.029,8.865-21.41,8.865h-93.651c-10.966,0-20.859,6.53-25.17,16.607l-38.544,89.927
  c-4.767,11.112-12.545,20.006-22.012,26.169c-9.474,6.154-20.638,9.526-32.103,9.526c-6.272,0-12.633-0.999-18.89-3.114
  l-0.066-0.029l-115.391-38.17v-99.6c0-4.48-3.636-8.123-8.123-8.123c-4.48,0-8.123,3.643-8.123,8.123v96.185h-3.856l-2.387,3.797
  c-1.896,3.026-4.539,5.56-7.639,7.308c-3.099,1.763-6.646,2.762-10.488,2.762h-8.872c-5.934,0-11.237-2.395-15.144-6.28
  c-3.885-3.9-6.265-9.21-6.272-15.137V208.734c0.008-5.935,2.387-11.252,6.272-15.145c3.907-3.885,9.21-6.265,15.144-6.28h8.872
  c4.745,0.015,9.042,1.521,12.589,4.113c3.54,2.586,6.258,6.243,7.69,10.481l1.858,5.508h9.284l2.041-1.337
  c0,0,36.371-24.12,74.497-49.458c19.067-12.677,38.566-25.662,54.196-36.106c7.814-5.229,14.652-9.813,19.992-13.404
  c2.666-1.8,4.965-3.349,6.816-4.612c1.866-1.256,3.276-2.226,4.23-2.908c1.8-1.285,3.731-2.182,5.773-2.798
  c2.042-0.602,4.194-0.911,6.405-0.911c2.967,0,6.022,0.55,8.886,1.572c4.304,1.513,8.131,4.098,10.672,7.065
  c1.278,1.499,2.24,3.07,2.886,4.65c0.632,1.594,0.955,3.195,0.97,4.899c-0.014,2.086-0.484,4.34-1.806,6.963
  c-1.33,2.614-3.54,5.596-7.007,8.747c-16.32,14.836-26.169,24.304-31.979,30.135c-5.832,5.832-7.616,8.005-7.888,8.329
  c-4.591,5.053-7.029,11.538-7.029,18.134c0,3.577,0.712,7.191,2.167,10.598c4.252,9.93,14.006,16.364,24.796,16.364h189.322
  c3.158,0,6.427,0.823,9.629,2.438c4.818,2.394,9.401,6.596,12.633,11.634c3.246,5.053,5.12,10.826,5.104,16.21
  C479.5,252.008,476.129,259.514,470.635,265.022z" style="fill: rgb(75, 75, 75);"></path>
</g>
</svg>
